<svg xmlns="http://www.w3.org/2000/svg" style="display: none;">
    <symbol id="icon-avatar" viewBox="0 0 40 40">
      <style type="text/css">.st0{fill:#BCBEC0;}</style><path class="st0" d="M20 0C9 0 0 9 0 20s9 20 20 20 20-9 20-20S31 0 20 0zm0 39c-5.4 0-10.3-2.3-13.8-6 .1-.9.7-3.4 1.9-4 .9-.5 3.3-1 5-1.3 1.7-.2 3-1.7 3.5-2.4 1 .7 2.1 1.2 3.2 1.2 1.2 0 2.4-.5 3.4-1.3.5.7 1.9 2.3 3.6 2.5 1.7.2 4.1.8 5 1.3 1.2.6 1.8 3.2 1.9 4-3.4 3.7-8.3 6-13.7 6zm-7.1-24.2h.2v-1.3c3.3-.1 5.2-1.6 6.6-2.7.9-.7 1.7-1.3 2.4-1.3 1 0 1.1.5 1.1.7v.5h.5s1.5 0 2.2.9c.4.5.6 1.2.4 2.1l.2.3.3.2c.1.1.7.8.5 2.1-.2 1.8-1.5 2.5-1.5 2.5l-.2.1-.1.2s-.6 2.1-1.3 3.4c-1 1.7-2.7 2.9-4.4 2.9-1.6 0-3.4-1.2-4.4-2.9-.8-1.3-1.3-3.2-1.3-3.3L14 19h-.1c-.1 0-1.4-.8-1.5-2.6-.1-1 .2-1.5.5-1.6zm0-2.8c0-1.2.5-3.1 2.1-4.6 1.4-1.4 3.2-2.1 5.4-2.1 3.3 0 5.7 2.3 6.6 4.6.3.7.4 1.3.4 1.9-.1-.3-.3-.6-.5-.9-.8-.9-2-1.2-2.6-1.2-.2-.6-.7-1.2-2-1.2-1.1 0-2 .7-3 1.5-1.4 1.1-3.2 2.5-6.2 2.5H13c-.1-.1-.1-.3-.1-.5zm19.5 16.1c-1-.6-3.5-1.1-5.3-1.4-1.4-.2-2.6-1.7-3-2.2.4-.4.8-.9 1.1-1.4.7-1.2 1.2-2.9 1.4-3.5.5-.3 1.7-1.2 1.9-3.2.1-1.1-.2-2-.6-2.6.8-1 .9-2.6.2-4.3-1-2.6-3.7-5.2-7.5-5.2-2.5 0-4.6.8-6.1 2.4-1.7 1.7-2.4 4-2.4 5.3 0 1.1.1 1.8.2 2.2-.4.3-.8 1-.7 2.3.2 2 1.4 3 1.9 3.3.2.5.7 2.1 1.4 3.3.3.6.8 1.1 1.2 1.5-.5.6-1.6 1.9-2.9 2.1-1.9.3-4.3.8-5.3 1.4-1.4.8-2 3-2.2 4.1C2.7 28.9 1 24.6 1 20 1 9.5 9.5 1 20 1s19 8.5 19 19c0 4.6-1.7 8.9-4.5 12.2-.1-1-.7-3.3-2.1-4.1z"/>
    </symbol>
    <symbol id="icon-briefcase" viewBox="0 0 21 21">
      <style type="text/css">.st0{fill:#E0A727;}</style><path class="st0" d="M18.4 21H2.6c-1.3 0-2.1-.8-2.1-2.1v-8.2l-.4-.4c0-.1-.1-.2-.1-.3V4.7c0-.3.2-.5.5-.5h20c.3 0 .5.2.5.5V10c0 .1-.1.3-.1.4l-.4.4V19c0 1.2-.8 2-2.1 2zM1 9.8l.4.4c.1.1.1.2.1.4V19c0 .8.3 1.1 1.1 1.1h15.8c.8 0 1.1-.3 1.1-1.1v-8.4c0-.1.1-.3.1-.4l.4-.4V5.2H1v4.6zM15.2 5.2c-.3 0-.5-.2-.5-.5V2.3C14.3 1.9 13 1 10.5 1s-3.8.9-4.2 1.3v2.4c0 .3-.3.5-.5.5s-.5-.2-.5-.5V2.1c0-.1 0-.2.1-.3C5.5 1.7 7 0 10.5 0c3.5 0 5 1.7 5.1 1.7.1.1.1.2.1.3v2.6c0 .4-.2.6-.5.6zM10.5 12.1c-6.3 0-9.5-1-9.6-1.1-.3-.1-.4-.4-.3-.6.1-.3.4-.4.6-.3 0 0 3.2 1 9.3 1 6.1 0 9.3-1 9.3-1 .3-.1.5.1.6.3.1.3-.1.5-.3.6-.1 0-3.3 1.1-9.6 1.1zM5.2 14.7c-.7 0-1.3-.6-1.4-.7-.1-.1-.1-.2-.1-.4v-2.1c0-.3.2-.5.5-.5s.5.2.5.5v1.9c.2.1.4.3.6.3.2 0 .4-.1.6-.3v-1.9c0-.3.2-.5.5-.5s.5.2.5.5v2.1c0 .1-.1.3-.1.4-.2.1-.9.7-1.6.7zM15.8 14.7c-.7 0-1.3-.6-1.4-.7-.1-.1-.1-.2-.1-.4v-2.1c0-.3.2-.5.5-.5s.5.2.5.5v1.9c.2.1.4.3.6.3.2 0 .4-.1.6-.3v-1.9c0-.3.2-.5.5-.5s.5.2.5.5v2.1c0 .1-.1.3-.1.4-.3.1-.9.7-1.6.7zM15.2 3.1c-.1 0-2.7-.5-4.7-.5s-4.6.5-4.6.5c-.3 0-.6-.1-.6-.4-.1-.3.1-.5.4-.6.1 0 2.7-.5 4.8-.5 2.1 0 4.7.5 4.8.5.3.1.4.3.4.6 0 .2-.2.4-.5.4z"/>
    </symbol>
    <symbol id="icon-chat" viewBox="0 0 21.9 16.8">
      <style type="text/css">.st0{fill:#E0A727;}</style><path class="st0" d="M18.5 7.2c-.3-.1-.5.1-.6.3-.1.3.1.5.3.6 1.9.6 2.7 1.5 2.7 2.8 0 1.2-1.1 2.2-1.8 2.7-.1.1-.2.2-.2.4v1.6c-.3-.2-.8-.4-1.2-.9-.1-.1-.3-.2-.5-.2s-.3.1-.5.1c-.3.1-.5.1-.7.1-1.3 0-2.1-.3-3-.9-.2-.2-.5-.1-.7.1-.2.2-.1.5.1.7 1.1.8 2.1 1.1 3.6 1.1.4 0 .7-.1 1-.2h.1c1 1 2.1 1.2 2.1 1.2h.1c.1 0 .2 0 .3-.1.1-.1.2-.2.2-.4v-2c1.3-1 2-2.1 2-3.3.1-2.4-1.8-3.3-3.3-3.7zM17.3 7.1C17.3 3 13.6 0 8.7 0 3.8 0 0 3.1 0 7.1c0 1.9 1.1 3.7 3.1 5.1v3.3c0 .2.1.3.2.4.1.1.2.1.3.1h.2c.1 0 1.8-.8 3.3-2.4.6.1 1.3.2 2 .2 4.9 0 8.2-2.7 8.2-6.7zM9 12.8c-.7 0-1.4-.1-2-.2-.2 0-.4 0-.5.2-.8 1-1.8 1.6-2.4 2V12c0-.2-.1-.3-.2-.4C2.5 10.7 1 9.2 1 7.1 1 3.7 4.4 1 8.8 1c4.3 0 7.6 2.6 7.6 6.1-.1 3.4-3 5.7-7.4 5.7zM8.7 5.9c-.7 0-1.3.5-1.3 1.2S8 8.4 8.7 8.4 10 7.8 10 7.1s-.6-1.2-1.3-1.2zm-.3 1.2c0-.1.1-.3.3-.3.1 0 .3.1.3.3-.1.3-.6.3-.6 0zM12.2 5.9c-.7 0-1.3.6-1.3 1.3s.6 1.3 1.3 1.3 1.3-.6 1.3-1.3-.6-1.3-1.3-1.3zM12 7.1c0-.1.1-.3.3-.3.1 0 .3.1.3.3-.1.3-.6.3-.6 0zM5.1 5.9c-.7 0-1.3.6-1.3 1.3s.6 1.3 1.3 1.3 1.3-.6 1.3-1.3-.6-1.3-1.3-1.3zm-.3 1.3c0-.2.2-.3.3-.3.1 0 .3.1.3.3 0 .3-.6.3-.6 0z"/>
    </symbol>
    <symbol id="icon-close" viewBox="0 0 48 48">
      <path d="M38 12.83L35.17 10 24 21.17 12.83 10 10 12.83 21.17 24 10 35.17 12.83 38 24 26.83 35.17 38 38 35.17 26.83 24z"/><path d="M0 0h48v48H0z" fill="none"/>
    </symbol>
    <symbol id="icon-desktop" viewBox="0 0 20.7 19">
      <style type="text/css">.st0{fill:#E0A727;}</style><path class="st0" d="M18.9 0H1.8C.8 0 0 .8 0 1.8v12.9c0 1 .8 1.8 1.8 1.8h5.7L7 18H4.4c-.3 0-.5.2-.5.5s.2.5.5.5h12c.3 0 .5-.2.5-.5s-.3-.5-.5-.5h-2.6l-.5-1.6H19c1 0 1.8-.8 1.8-1.8V1.8c-.1-1-.9-1.8-1.9-1.8zm-6.2 18H8l.5-1.6h3.6l.6 1.6zm7-3.4c0 .4-.4.8-.8.8H1.8c-.4 0-.8-.4-.8-.8V1.8c0-.4.4-.8.8-.8h17.1c.4 0 .8.4.8.8v12.8zM18.5 1.7H2.2c-.3 0-.5.2-.5.5v10.3c0 .3.2.5.5.5h16.3c.3 0 .5-.2.5-.5V2.2c0-.3-.2-.5-.5-.5zM18 12H2.7V2.7H18V12z"/><circle class="st0" cx="10.4" cy="14.2" r=".9"/>
    </symbol>
    <symbol id="icon-desktops" viewBox="0 0 21.3 21.3">
      <style type="text/css">.st0{fill:#E0A727;}</style><path class="st0" d="M4.9 7.9H1.3c-.2 0-.3-.1-.3-.4v-.3h10.1c.3 0 .5-.2.5-.5V1.4C11.6.6 11 0 10.3 0h-9C.6 0 0 .6 0 1.4v6.2C0 8.4.6 9 1.3 9h3.6c.3 0 .5-.2.5-.5s-.2-.6-.5-.6zM1.3 1h8.9c.2 0 .3.2.3.4v4.8H1V1.4c0-.2.1-.4.3-.4zM4.9 9.7H2.3c-.3 0-.5.2-.5.5s.2.5.5.5h2.6c.3 0 .5-.2.5-.5s-.2-.5-.5-.5zM19.3 7.9H8.1c-1.1 0-1.9 1-1.9 2.1v7.4c0 1.1.9 2.1 1.9 2.1h5.1v.8h-3c-.3 0-.5.2-.5.5s.2.5.5.5h7c.3 0 .5-.2.5-.5s-.2-.5-.5-.5h-3v-.8h5.1c1.1 0 1.9-.9 1.9-2.1V10c.1-1.1-.8-2.1-1.9-2.1zm-11.2 1h11.3c.5 0 .9.5.9 1.1v5.8H7.2V10c0-.6.4-1.1.9-1.1zm-.9 8.5v-.6h6.1c-.3.2-.5.5-.5.8 0 .4.2.7.5.8H8.1c-.5.1-.9-.4-.9-1zm12.1 1.1h-5.2c.3-.2.5-.5.5-.8 0-.4-.2-.7-.5-.8h6.1v.6c.1.5-.4 1-.9 1z"/>
    </symbol>
    <symbol id="icon-gear" viewBox="0 0 22 22">
      <style type="text/css">.st0{fill:#E0A727;}</style><path class="st0" d="M22 10.3c0-.5-.5-1-.9-1.1l-2.2-.5c-.1 0-.3-.2-.4-.3l-.3-.7c-.1-.1 0-.4 0-.5l1.2-1.9c.3-.4.2-1.1-.2-1.5l-1-1c-.4-.3-1-.4-1.5-.1l-1.9 1.2c-.1.1-.3.1-.5 0l-.7-.3c-.1 0-.3-.2-.3-.3L12.8 1c-.1-.5-.6-.9-1.1-1h-1.4c-.5 0-1 .5-1.1 1l-.6 2.2c0 .1-.2.3-.3.4l-.7.2c-.1.1-.4 0-.5 0L5.2 2.6c-.4-.3-1.1-.2-1.5.2l-1 1c-.3.4-.4 1-.1 1.5l1.2 1.9c.1.1.1.3 0 .5l-.3.6c0 .1-.2.3-.3.3L1 9.2c-.5.1-.9.6-1 1.1v1.4c0 .5.5 1 1 1.1l2.2.5c.1 0 .3.2.4.3l.3.7c.1.1 0 .4 0 .5l-1.2 1.9c-.3.4-.2 1.1.2 1.5l1 1c.4.3 1 .4 1.4.1l1.9-1.2c.1-.1.3-.1.5 0l.7.3c.1 0 .3.2.3.3l.5 2.3c.1.5.6.9 1.1.9h1.4c.5 0 1-.5 1.1-1l.5-2.2c0-.1.2-.3.3-.3l.7-.3c.1-.1.3 0 .5 0l1.9 1.2c.4.3 1.1.2 1.5-.2l1-1c.3-.4.4-1 .1-1.5l-1.2-1.9c-.1-.1-.1-.3 0-.5l.3-.7c0-.1.2-.3.3-.3l2.2-.5c.5-.1.9-.6.9-1.1v-.7c.2-.3.2-.6.2-.6zm-1 1.3c0 .1-.1.2-.2.2l-2.2.5c-.4.1-.9.5-1 .9l-.3.8c-.2.4-.2 1 .1 1.4l1.2 1.9v.2l-1 1c-.1 0-.2.1-.3 0l-1.9-1.2c-.4-.2-1-.3-1.4-.1l-.7.3c-.4.2-.8.6-1 1.1l-.5 2.2c0 .1-.1.2-.2.2h-1.2c-.1 0-.2-.1-.2-.2l-.5-2.2c-.1-.4-.5-.9-.9-1l-.8-.3c-.2-.1-.4-.1-.6-.1-.3 0-.6.1-.8.2l-1.9 1.2h-.2l-1-1c-.1-.1-.1-.2 0-.3l1.2-1.9c.2-.4.3-1 .1-1.4l-.3-.7c-.2-.4-.6-.8-1.1-1l-2.2-.5c-.1 0-.2-.1-.2-.2v-1.2c0-.1.1-.2.2-.2l2.2-.5c.5-.1.9-.5 1-.9l.3-.8c.2-.4.2-1-.1-1.4L3.5 4.7v-.2l1-1c.1 0 .2-.1.3 0l1.9 1.2c.3.2.9.2 1.3 0l.7-.3c.4-.2.8-.6 1-1.1l.5-2.2c0-.1.1-.2.2-.2h1.2c.1 0 .2.1.2.2l.5 2.2c.1.4.5.9.9 1l.8.4c.4.2 1 .2 1.4-.1l1.9-1.2h.2l1 1c0 .1.1.2 0 .3l-1.2 1.9c-.2.4-.3 1-.1 1.4l.3.7c.2.4.6.8 1.1 1l2.2.5c.1 0 .2.1.2.2v1.2zM11 6.3c-2.6 0-4.7 2.1-4.7 4.7s2.1 4.7 4.7 4.7 4.7-2.1 4.7-4.7-2.1-4.7-4.7-4.7zm0 8.4c-2 0-3.7-1.7-3.7-3.7S9 7.3 11 7.3 14.7 9 14.7 11 13 14.7 11 14.7z"/>
    </symbol>
    <symbol id="icon-play" viewBox="0 0 23.3 26.9">
      <style type="text/css">.st0{fill:#FFFFFF;}</style><path id="XMLID_61_" class="st0" d="M0 13.4V0l11.6 6.7 11.7 6.7-11.7 6.8L0 26.9z"/>
    </symbol>
    <symbol id="icon-refresh" viewBox="0 0 20 20">
      <style type="text/css">.st0{fill:#E0A727;}</style><path class="st0" d="M14.7 11c-.3-.1-.5.1-.6.3-.6 1.7-2.2 2.9-4 2.9-1.4 0-2.8-.7-3.5-1.9l.4.1c.3.1.5-.1.6-.3.1-.3-.1-.5-.3-.6L5.6 11h-.4s-.1 0-.1.1l-.1.1v.1l-.5 1.5c-.1.3.1.5.3.6H5c.2 0 .4-.1.5-.3l.1-.3c.9 1.5 2.6 2.4 4.4 2.4 2.3 0 4.3-1.4 5-3.6.1-.2-.1-.5-.3-.6zM10 0C4.5 0 0 4.5 0 10s4.5 10 10 10 10-4.5 10-10S15.5 0 10 0zm0 19c-5 0-9-4-9-9s4-9 9-9 9 4 9 9-4 9-9 9zM15.2 6.5c-.3-.1-.5.1-.6.3l-.1.3c-.9-1.5-2.6-2.4-4.4-2.4-2.3 0-4.3 1.4-5 3.6-.2.3 0 .6.2.7.3.1.6-.1.7-.3.6-1.7 2.2-2.9 4-2.9 1.4 0 2.8.7 3.5 1.9l-.4-.1c-.3-.1-.5.1-.6.3-.1.3.1.5.3.6l1.6.5h.4s.1 0 .1-.1l.1-.1v-.1l.5-1.5c.1-.3-.1-.6-.3-.7z"/>
    </symbol>
    <symbol id="icon-search" viewBox="0 0 22 22">
      <title/><defs><path d="M15.477 13.356C16.437 11.98 17 10.306 17 8.5 17 3.806 13.194 0 8.5 0S0 3.806 0 8.5 3.806 17 8.5 17c1.805 0 3.48-.563 4.855-1.522l6.304 6.303c.115.12.3.12.42 0l1.7-1.697c.117-.116.11-.31 0-.423l-6.304-6.304zM8.5 15c3.59 0 6.5-2.91 6.5-6.5S12.09 2 8.5 2 2 4.91 2 8.5 4.91 15 8.5 15z" id="a"/></defs><g fill="none"><use fill="#000" xlink:href="#a"/><use xlink:href="#a"/></g>
    </symbol>
    <symbol id="icon-smartphone" viewBox="0 0 15 20">
      <style type="text/css">.st0{fill:#E0A727;}</style><path class="st0" d="M12.9 20H2.2C1 20 0 19 0 17.8V2.2C0 1 1 0 2.2 0h10.7C14.1 0 15 1 15 2.2v15.7c0 1.1-.9 2.1-2.1 2.1zM2.2 1C1.5 1 1 1.5 1 2.2v15.7c0 .6.5 1.1 1.2 1.1h10.7c.6 0 1.2-.5 1.2-1.2V2.2C14 1.5 13.5 1 12.9 1H2.2zM7.5 17c-.5 0-.8.4-.8.8 0 .5.4.8.8.8.5 0 .8-.4.8-.8S8 17 7.5 17zM12.9 16.7H2.2c-.3 0-.5-.2-.5-.5V3c0-.3.2-.5.5-.5h10.7c.3 0 .5.2.5.5v13.2c0 .3-.2.5-.5.5zm-10.2-1h9.7V3.5H2.7v12.2zM7.5 1.3c-.2 0-.4.2-.4.4s.2.4.4.4.4-.1.4-.4c0-.2-.1-.4-.4-.4z"/>
    </symbol>
    <symbol id="icon-smartphones" viewBox="0 0 21.4 21.4">
      <style type="text/css">.st0{fill:#E0A727;}</style><path class="st0" d="M19.3 7.7h-5c-.3 0-.5.2-.5.5v8.1c0 .3.2.5.5.5h5c.3 0 .5-.2.5-.5V8.2c0-.2-.3-.5-.5-.5zm-.5 8.2h-4V8.7h4v7.2zM10.4 20.4H1.2c-.1 0-.2-.1-.2-.2v-19c0-.1.1-.2.2-.2H15c.1 0 .2.1.2.2v3.3c0 .3.2.5.5.5s.5-.2.5-.5V1.2C16.2.6 15.7 0 15 0H1.2C.5 0 0 .5 0 1.2v19c0 .6.5 1.2 1.2 1.2h9.2c.3 0 .5-.2.5-.5s-.3-.5-.5-.5zM13.7 5c.3 0 .5-.2.5-.5V3.4c0-.5-.4-.9-1-.9H3.1c-.5 0-1 .4-1 .9v11.9c0 .5.4.9 1 .9h7.3c.3 0 .5-.2.5-.5s-.2-.5-.5-.5l-7.2.1V3.5h10.1v1c-.1.3.1.5.4.5zM20.2 5.9H13c-.6 0-1.2.5-1.2 1.2v13.1c0 .6.5 1.2 1.2 1.2h7.2c.6 0 1.2-.5 1.2-1.2V7.1c0-.7-.6-1.2-1.2-1.2zm.2 14.3c0 .1-.1.2-.2.2H13c-.1 0-.2-.1-.2-.2V7.1c0-.1.1-.2.2-.2h7.2c.1 0 .2.1.2.2v13.1zM6.9 18.6c0 .6.5 1.2 1.2 1.2s1.2-.5 1.2-1.2-.5-1.2-1.2-1.2-1.2.5-1.2 1.2zm1.3 0c0 .2-.3.2-.3 0 0-.1.1-.2.2-.2s.1.1.1.2zM16.6 17.4c-.6 0-1.2.5-1.2 1.2s.5 1.2 1.2 1.2 1.2-.5 1.2-1.2-.6-1.2-1.2-1.2zm-.2 1.2c0-.1.1-.2.2-.2s.2.1.2.2c-.1.1-.4.1-.4 0z"/>
    </symbol>
    <symbol id="icon-stats" viewBox="0 0 21.4 20.5">
      <style type="text/css">.st0{fill:#E0A727;}</style><path class="st0" d="M21.4.5c0-.3-.2-.5-.5-.5H.5C.2 0 0 .2 0 .5V14c0 .7.5 1.3 1.2 1.3h9v1.9l-4.5 2.4c-.2.1-.3.4-.2.7.1.2.4.3.7.2l4.5-2.4 4.5 2.4c.1 0 .2.1.2.1.2 0 .4-.1.4-.3.1-.2 0-.5-.2-.7l-4.5-2.4v-2h9c.6 0 1.2-.6 1.2-1.3V.6c.1 0 .1 0 .1-.1 0 .1 0 0 0 0zm-1.2 13.7h-19c-.1 0-.2-.1-.2-.3V1h19.3v12.9c.1.2 0 .3-.1.3zM17.7 4.1h-3.6c-.3 0-.5.2-.5.5s.2.5.5.5h2.2l-4.2 4.2-3.8-3.7c-.2-.2-.5-.2-.7 0l-4 3.3c-.2.2-.2.5-.1.7s.5.3.7.1L8 6.6l3.7 3.7c.1.1.2.1.4.1s.3 0 .4-.1L17 5.8V8c0 .3.2.5.5.5s.5-.3.5-.5V4.4l-.3-.3z"/>
    </symbol>
    <symbol id="icon-tools" viewBox="0 0 20.9 21">
      <style type="text/css">.st0{fill:#E0A727;}</style><path class="st0" d="M15.4 8.2c1.5.5 3.2.1 4.3-1.1 1.2-1.2 1.5-3 .9-4.5-.1-.2-.2-.3-.4-.3s-.3 0-.4.1l-2.2 2.3c-.1.1-.2.1-.3 0l-1-1c-.1-.1-.1-.2 0-.3l2.3-2.3c.1-.1.2-.3.1-.4 0-.2-.1-.3-.3-.4-1.6-.6-3.4-.3-4.6.9-1.1 1.1-1.5 2.9-1 4.3l-7.3 7.3c-1.5-.5-3.2-.1-4.3 1.1-1.2 1.2-1.5 3-.9 4.5.1.2.2.3.4.3s.3 0 .4-.1l2.2-2.3c.1-.1.2-.1.3 0l1 1c.1.1.1.2 0 .3l-2.2 2.3c-.1.1-.2.3-.1.4s.1.3.3.4c.5.2 1.1.3 1.7.3 1 0 2.1-.4 2.8-1.2 1.1-1.1 1.5-2.9 1-4.3l7.3-7.3zm-9 10.9c-.7.8-1.8 1-2.7.8l1.7-1.7c.5-.5.5-1.2 0-1.7l-1-1c-.4-.4-1.2-.4-1.7 0L1 17.2c-.2-1 .2-2 .9-2.7.9-.9 2.4-1.2 3.5-.7.2.1.4 0 .5-.1L13.7 6c.1-.1.2-.4.1-.5-.5-1.2-.2-2.7.7-3.6.7-.8 1.8-1 2.7-.8l-1.7 1.7c-.5.5-.5 1.2 0 1.7l1 1c.5.5 1.2.5 1.7 0l1.7-1.7c.2 1-.2 2-.9 2.7-.9.9-2.4 1.2-3.5.7-.2-.1-.4 0-.5.1L7.2 15c-.1.1-.2.4-.1.5.5 1.2.2 2.7-.7 3.6zM14 11.4c-.2-.2-.5-.2-.7 0s-.2.5 0 .7l6.4 6.4c.1.1.1.2 0 .3l-.9 1c-.1.1-.2.1-.3 0L12 13.4c-.2-.2-.5-.2-.7 0-.2.2-.2.5 0 .7l6.5 6.4c.2.2.5.4.8.4.3 0 .6-.1.9-.4l.9-1c.5-.5.5-1.2 0-1.7L14 11.4zM2.1 4.1c.1.1.2.1.4.1s.3-.1.4-.1l.3-.3L8 8.6c0 .1.1.1.2.1s.3 0 .4-.1c.2-.2.2-.5 0-.7L3.8 3.1l.3-.3c.1-.1.1-.2.1-.4s0-.2-.1-.3L2.1.2C2 0 1.6 0 1.4.2L.1 1.5c-.1.2-.1.5 0 .7l2 1.9zm-.3-2.9L3 2.5l-.6.5-1.2-1.2.6-.6z"/>
    </symbol>
    <symbol id="icon-user" viewBox="0 0 21.3 21">
      <style type="text/css">.st0{fill:#E0A727;}</style><path class="st0" d="M21.3 18.5c-.1-.5-.4-1-.8-1.5-1.2-1.5-3.1-1.9-4.3-2.1l-.4-.1c-.1 0-.3-.1-.4-.1-1-.4-1.6-1.1-1.8-1.9 1-.9 1.8-2.2 2.3-3.7.5-.7.8-1.4.8-2 0-.4-.1-.8-.4-1.1-.2-3.4-2.6-6-5.6-6h-.1C7.8 0 5.4 2.6 5.1 5.9c-.4.3-.6.7-.6 1.2 0 .7.4 1.6 1.1 2.4.5 1.3 1.2 2.4 2 3.2-.2.8-.9 1.5-1.8 1.9-.1 0-.2.1-.3.1-.1 0-.3.1-.5.1-1.1.3-3 .7-4.2 2.1-.4.5-.7 1-.9 1.6-.1.2 0 .4.2.6.1.1 3.2 2 10.4 2 6.1 0 9.4-1.5 10.4-1.9.4-.2.5-.5.4-.7zm-5-2.5l-3.6 1.9-1.4-1.4 3.2-1.1 1.8.6zM10.8 1c2.3 0 4.2 2 4.5 4.6-.7-.2-1.9-.8-2.3-1.7-.1-.2-.2-.3-.4-.3s-.4.1-.5.3c-.4.7-3.1 1.6-4.5 1.6-.5 0-1-.1-1.4-.3C6.7 2.8 8.5 1 10.8 1zM8.6 12.1c-.9-.7-1.6-1.8-2-3.1 0-.1-.1-.1-.1-.2-.6-.5-1-1.2-1-1.7 0-.3.1-.4.3-.5.1-.1.2-.2.2-.3.5.2 1 .3 1.6.3 1.2 0 3.7-.7 4.8-1.7.9 1.2 2.6 1.7 3.2 1.8.1.1.1.2.1.4 0 .4-.2 1-.7 1.5 0 0-.1.1-.1.2-.5 1.4-1.3 2.7-2.2 3.5-.1.1-.2.3-.2.5.1.6.4 1.3 1 1.9l-2.9 1-3.1-1c.7-.6 1-1.4 1.1-2 .2-.3.1-.5 0-.6zm-1.5 3.3l3.2 1.1-1.4 1.4-3.4-2 1.6-.5zm3.6 4.6c-5.6 0-8.6-1.2-9.6-1.6.1-.3.3-.6.5-.9.6-.7 1.5-1.1 2.3-1.4L8.7 19c.2.1.4.1.6-.1l1.5-1.5 1.5 1.5c.1.1.2.1.4.1.1 0 .2 0 .2-.1l5-2.7c.7.3 1.5.7 2 1.3.2.2.3.5.4.7-1.3.7-4.4 1.8-9.6 1.8z"/>
    </symbol></svg>