<?xml version="1.0" encoding="utf-8"?>
<!-- Generator: Adobe Illustrator 19.1.0, SVG Export Plug-In . SVG Version: 6.00 Build 0)  -->
<svg version="1.1" id="Слой_1" xmlns="http://www.w3.org/2000/svg" xmlns:xlink="http://www.w3.org/1999/xlink" x="0px" y="0px"
	 viewBox="0 0 135.6 44.9" style="enable-background:new 0 0 135.6 44.9;" xml:space="preserve">
<style type="text/css">
	.st0{fill-rule:evenodd;clip-rule:evenodd;fill:#0E1E2E;}
	.st1{opacity:0.5;fill-rule:evenodd;clip-rule:evenodd;fill:#334353;}
	.st2{fill-rule:evenodd;clip-rule:evenodd;fill:#334353;}
</style>
<g id="XMLID_285_">
	<g id="XMLID_304_">
		<path id="XMLID_309_" class="st0" d="M79.3,18.1c-1.5-0.1-2.9,0.2-3.3,0.8c-0.4,9.3-0.4,7.9-0.3,12.4c-1.8-2.6-4.2-6.6-7.1-8.5
			c-4-2.7-5.7,0.1-6.4,1.9c-1.2,2.7-0.1,8.2,1.3,8.9c1.7,0.8,2.5-1.8,2.7-2.2c0.4-1.2,0.5-4.9,0.8-4.6c2.2,2.3,4.8,5.5,6.6,7.4
			c0.6,0.6,1.4,1.8,2.3,2c0,0.5,0,0.9,0,1.4c0,0.7,1.2,1.2,2.7,1.2c1.5,0,2.7-0.5,2.7-1.2c-0.1-12.4-0.1-6.4,0.1-17.9
			C81.5,19,80.7,18.3,79.3,18.1z"/>
		<path id="XMLID_308_" class="st0" d="M101.1,22.2c-1.5,0-2.7,0.5-2.7,1.2c0.1,1.3-1.1,11.4-3.5,13c-4.7-3.5-5.1-8.5-5.3-12.4
			c0-0.7-1.2-1.2-2.7-1.2c-1.5,0-2.7,0.5-2.7,1.2c1.2,19,16.8,16.7,17.5,10.5c0.4-3.8,2-8.3,2-11.1
			C103.8,22.7,102.6,22.2,101.1,22.2z"/>
		<path id="XMLID_307_" class="st0" d="M110.6,18.6c-1.1,0-2,0.4-2.4,1c-1,0.2-1.6,0.6-1.6,1.1c0,2.3,0.8,17.7,0.6,19.6
			c0,0.7,1.2,1.2,2.7,1.2c1.5,0,2.7-0.5,2.7-1.2c0.1-1.7-0.5-14-0.6-18.4c7.4,0.7,9.3,5.5,7.2,7.7c-0.9,0.4-1.8,0.6-2.8,0.9
			c-1.2,0.5-1.5,1.5-0.7,2.3c0.8,0.7,2.5,0.9,3.7,0.4C130.3,29.9,125,19,110.6,18.6z"/>
		<path id="XMLID_306_" class="st0" d="M131.2,20c-1.5,0-3.2,0.4-3.2,1c0,4.9,0,9.7,0,14.5c0,0.5,1.7,1,3.2,1c1.5,0,3.2-0.4,3.2-1
			c0-4.9,0-9.7,0-14.5C134.4,20.4,132.7,20,131.2,20z"/>
		<path id="XMLID_305_" class="st0" d="M134,8c-1.2-1-2.4-1.3-2.7-0.9c-1.6,4.1-1,2.1-1.9,5.8c-0.5,0.3,0,1.3,1.1,2.3
			c1.1,1,2.4,1.5,2.9,1.3c1.3-3.8,0.5-1.8,2.2-6C135.8,10,135.1,8.9,134,8z"/>
	</g>
	<g id="XMLID_286_">
		<path id="XMLID_303_" class="st1" d="M30.5,11.8c3.7,0.3,7.4,2,10,5.1c3.6,4.3,2.3,4.8,4.2-3.2c2.6-10.8,6.3-18.1-3.3-10.6
			c-4.9,3.8-8.1,6.3-11.2,7.5C28.7,11.2,29.1,11.7,30.5,11.8L30.5,11.8z"/>
		<path id="XMLID_302_" class="st1" d="M15.3,20.1c1.7-3.9,5.2-6.6,9.2-7.7c1.1-0.3,1.1-1,0-1.2c-2.9-0.5-6.2-2-11.1-4.5
			c-9-4.7-7.7-4.7-4.7,4.2c0.5,1.5,0.1,1.6,1.6,1.6c5,0.1,4.3,0,0.3,2.5c-1.9,1.2,0,3.6,1.1,6.2c0.2,0.4,0.3,0.7,0.4,1
			C14.2,26.7,13.8,23.5,15.3,20.1L15.3,20.1z"/>
		<path id="XMLID_299_" class="st2" d="M35.8,22.9l-1.6,0.3l0.3,1.7l-1.7,0.3l0.3,1.6l1.7-0.3l0.3,1.7l1.6-0.3l-0.3-1.7l1.7-0.3
			l-0.3-1.6l-1.7,0.3L35.8,22.9z M19.6,28.1l6.1-1.8l-3.8-1.8L19.6,28.1z"/>
		<path id="XMLID_298_" class="st0" d="M29.2,41.1l4.3-3.1c-0.2-1.5-1.6-2.9-3.6-2.9c-2.4-0.1-4.1,1.4-4.3,3L29.2,41.1z"/>
		<path id="XMLID_297_" class="st2" d="M29.4,44c1-0.1,1.7-0.7,1.7-1.3c-0.1-0.6-0.9-1-1.9-0.9c-1,0.1-1.7,0.7-1.7,1.3
			C27.6,43.7,28.4,44.1,29.4,44L29.4,44z"/>
		<g id="XMLID_292_">
			<path id="XMLID_296_" class="st0" d="M9.6,38.4c-0.5-1.1-0.6-4.1-3.9-0.7c-1.2,1.2-1.8,2.4-1.4,2.8c2.4,4-0.6-1.5,1.4,2.3
				c0.6,0.2,1.9-0.6,3-1.8C9.7,39.8,10.1,38.6,9.6,38.4L9.6,38.4z"/>
			<path id="XMLID_295_" class="st0" d="M8.2,34.1c-0.4-1.5-0.1-0.7-1-2.5c-0.1-0.2-0.7,0-1.2,0.4c-0.5,0.4-0.8,0.9-0.7,1.1
				c0.8,1.8,0.4,0.9,1.1,2.6c0.2,0.1,0.8-0.2,1.3-0.6C8.2,34.6,8.5,34.2,8.2,34.1L8.2,34.1z"/>
			<path id="XMLID_294_" class="st0" d="M5,34.5c-1-1.5-0.3-0.5-1.7-2.1c-0.2-0.2-0.7,0.2-1.1,0.9c-0.4,0.6-0.6,1.2-0.3,1.4
				c1.4,1.6,0.6,0.7,1.8,2.2c0.3,0,0.8-0.4,1.2-1.1C5.2,35.1,5.3,34.5,5,34.5L5,34.5z"/>
			<path id="XMLID_293_" class="st0" d="M3.7,38c-1.1-1.2-0.9-1-2.5-2.3C1,35.6,0.6,36,0.3,36.6C0,37.3-0.1,37.8,0.1,38
				c1.5,1.3,1.3,1.1,2.6,2.3c0.3,0,0.7-0.5,0.9-1.1C3.9,38.5,3.9,38,3.7,38L3.7,38z"/>
		</g>
		<g id="XMLID_287_">
			<path id="XMLID_291_" class="st0" d="M43.4,41.1c0.3-1.2-0.2-4.3,3.9-1.5c1.4,1,2.3,2.2,1.9,2.7c-1.7,4.6,0.3-1.7-1,2.6
				c-0.6,0.3-2.1-0.2-3.4-1.3C43.5,42.5,42.9,41.4,43.4,41.1L43.4,41.1z"/>
			<path id="XMLID_290_" class="st0" d="M43.9,36.1c0.4-1.6,0.1-0.7,0.9-2.6c0.1-0.2,0.7,0,1.3,0.4c0.6,0.4,0.9,0.9,0.8,1.1
				c-0.7,1.9-0.4,1-1,2.7c-0.2,0.1-0.9-0.1-1.4-0.6C43.9,36.7,43.7,36.3,43.9,36.1L43.9,36.1z"/>
			<path id="XMLID_289_" class="st0" d="M47.6,35.2c0.7-1.7,0-0.4,1.2-2.3c0.2-0.2,0.8,0.1,1.3,0.7c0.6,0.5,0.8,1.2,0.6,1.3
				c-1.2,1.9-0.4,0.6-1.4,2.4c-0.3,0.1-0.9-0.3-1.4-0.9C47.5,35.9,47.3,35.3,47.6,35.2L47.6,35.2z"/>
			<path id="XMLID_288_" class="st0" d="M49.3,39c0.9-1.4,0.7-1.2,2-2.8c0.2-0.1,0.7,0.2,1.1,0.8c0.4,0.6,0.6,1.1,0.4,1.3
				c-1.3,1.5-1.1,1.3-2.2,2.8c-0.3,0-0.8-0.4-1.2-1C49.2,39.5,49.1,39,49.3,39L49.3,39z"/>
		</g>
	</g>
</g>
</svg>
