<?xml version="1.0" encoding="utf-8"?>
<svg version="1.1" id="Слой_1" xmlns="http://www.w3.org/2000/svg" xmlns:xlink="http://www.w3.org/1999/xlink" x="0px" y="0px"
	 viewBox="0 0 129.3 40" style="enable-background:new 0 0 129.3 40;" xml:space="preserve">
<style type="text/css">
	.st0{fill:#EAEAEA;}
	.st1{clip-path:url(#SVGID_2_);fill:url(#SVGID_3_);}
	.st2{clip-path:url(#SVGID_2_);fill:url(#SVGID_4_);}
	.st3{clip-path:url(#SVGID_2_);fill:url(#SVGID_5_);}
	.st4{clip-path:url(#SVGID_2_);fill:url(#SVGID_6_);}
	.st5{fill:#40505E;}
</style>
<path id="XMLID_403_" class="st0" d="M109.3,40H20C9,40,0,31,0,20v0C0,9,9,0,20,0l89.3,0c11,0,20,9,20,20v0
	C129.3,31,120.4,40,109.3,40z"/>
<g>
	<g id="PLAY_11_">
		<defs>
			<path id="SVGID_1_" d="M36.1,17.3l-4.5-2.6c0,0-8.2-4.7-8.7-5c-0.5-0.3-1-0.1-1,0.5c0,1,0,10.1,0,10.1s0,9.9,0,10.3
				c0,0.4,0.3,0.6,0.8,0.4c0.4-0.2,8.9-5.1,8.9-5.1l4.5-2.6c0,0,3.8-2.2,4.3-2.5c0.5-0.3,0.5-0.7,0-0.9C40,19.5,36.1,17.3,36.1,17.3
				z"/>
		</defs>
		<clipPath id="SVGID_2_">
			<use xlink:href="#SVGID_1_"  style="overflow:visible;"/>
		</clipPath>
		<linearGradient id="SVGID_3_" gradientUnits="userSpaceOnUse" x1="27.4981" y1="9.1681" x2="27.4981" y2="31.2748">
			<stop  offset="0" style="stop-color:#257CB0"/>
			<stop  offset="0.2863" style="stop-color:#4A93B5"/>
			<stop  offset="0.767" style="stop-color:#78BCBB"/>
			<stop  offset="1" style="stop-color:#89CFBD"/>
		</linearGradient>
		<polygon class="st1" points="21.9,9.2 21.9,20.2 21.9,31.3 33.1,20.2 		"/>
		<linearGradient id="SVGID_4_" gradientUnits="userSpaceOnUse" x1="21.9244" y1="14.6546" x2="36.0659" y2="14.6546">
			<stop  offset="0" style="stop-color:#52C1AD"/>
			<stop  offset="1" style="stop-color:#DEE89A"/>
		</linearGradient>
		<polygon class="st2" points="36.1,17.3 31.6,14.7 21.9,9.1 21.9,9.2 33.1,20.2 		"/>
		<linearGradient id="SVGID_5_" gradientUnits="userSpaceOnUse" x1="28.9951" y1="20.2216" x2="28.9951" y2="31.355">
			<stop  offset="0" style="stop-color:#EC413D"/>
			<stop  offset="0.1668" style="stop-color:#DA4452"/>
			<stop  offset="0.5748" style="stop-color:#B0487A"/>
			<stop  offset="0.8619" style="stop-color:#954A92"/>
			<stop  offset="1" style="stop-color:#8A4A9D"/>
		</linearGradient>
		<polygon class="st3" points="21.9,31.3 21.9,31.4 31.6,25.8 36.1,23.2 33.1,20.2 		"/>
		<linearGradient id="SVGID_6_" gradientUnits="userSpaceOnUse" x1="37.14" y1="17.2526" x2="37.14" y2="23.1902">
			<stop  offset="0" style="stop-color:#F58879"/>
			<stop  offset="0.1194" style="stop-color:#F69079"/>
			<stop  offset="0.7128" style="stop-color:#FCB877"/>
			<stop  offset="1" style="stop-color:#FEC874"/>
		</linearGradient>
		<polygon class="st4" points="36.1,17.3 33.1,20.2 36.1,23.2 41.2,20.2 		"/>
	</g>
	<g>
		<path class="st5" d="M92.1,24.5c-0.4,0-0.8-0.1-1.1-0.2c-0.3-0.2-0.6-0.4-0.9-0.7H90c0,0.4,0.1,0.7,0.1,1.1v2.6h-1V18h0.8l0.1,0.9
			h0c0.3-0.4,0.5-0.6,0.9-0.8c0.3-0.2,0.7-0.2,1.1-0.2c0.9,0,1.5,0.3,2,0.9c0.5,0.6,0.7,1.4,0.7,2.5c0,1.1-0.2,1.9-0.7,2.5
			C93.6,24.3,92.9,24.5,92.1,24.5z M92,18.7c-0.7,0-1.1,0.2-1.4,0.5c-0.3,0.4-0.4,0.9-0.5,1.7v0.2c0,0.9,0.2,1.5,0.5,1.9
			c0.3,0.4,0.8,0.6,1.4,0.6c0.6,0,1-0.2,1.3-0.7c0.3-0.4,0.5-1.1,0.5-1.9c0-0.8-0.2-1.4-0.5-1.8C93,18.9,92.5,18.7,92,18.7z"/>
		<path class="st5" d="M97,24.4h-1v-9.1h1V24.4z"/>
		<path class="st5" d="M102.6,24.4l-0.2-0.9h0c-0.3,0.4-0.6,0.7-1,0.8c-0.3,0.1-0.7,0.2-1.2,0.2c-0.6,0-1.1-0.2-1.5-0.5
			c-0.4-0.3-0.5-0.8-0.5-1.4c0-1.3,1-2,3.1-2l1.1,0v-0.4c0-0.5-0.1-0.9-0.3-1.1c-0.2-0.2-0.6-0.4-1-0.4c-0.5,0-1.1,0.2-1.8,0.5
			l-0.3-0.7c0.3-0.2,0.7-0.3,1-0.4c0.4-0.1,0.8-0.1,1.1-0.1c0.8,0,1.3,0.2,1.7,0.5c0.4,0.3,0.6,0.9,0.6,1.6v4.4H102.6z M100.4,23.7
			c0.6,0,1.1-0.2,1.4-0.5c0.3-0.3,0.5-0.8,0.5-1.4v-0.6l-1,0c-0.8,0-1.3,0.1-1.7,0.4c-0.3,0.2-0.5,0.5-0.5,1c0,0.4,0.1,0.6,0.3,0.8
			C99.7,23.6,100,23.7,100.4,23.7z"/>
		<path class="st5" d="M103.9,18h1l1.4,3.7c0.3,0.8,0.5,1.4,0.6,1.8h0c0.1-0.2,0.2-0.5,0.3-1c0.2-0.5,0.7-2,1.6-4.5h1l-2.8,7.3
			c-0.3,0.7-0.6,1.2-1,1.5c-0.4,0.3-0.8,0.5-1.3,0.5c-0.3,0-0.6,0-0.9-0.1v-0.8c0.2,0,0.5,0.1,0.7,0.1c0.7,0,1.1-0.4,1.4-1.1
			l0.4-0.9L103.9,18z"/>
	</g>
	<g>
		<path class="st5" d="M74.1,18.6c0.3,0.3,1,0.8,1,1.8c0,1-0.6,1.5-1.1,1.9c-0.2,0.2-0.4,0.4-0.4,0.7c0,0.3,0.2,0.5,0.4,0.6l0.5,0.4
			c0.6,0.5,1.1,1,1.1,1.9c0,1.3-1.2,2.5-3.5,2.5c-1.9,0-2.9-0.9-2.9-1.9c0-0.5,0.2-1.2,1-1.6c0.8-0.5,2-0.6,2.6-0.6
			c-0.2-0.2-0.4-0.5-0.4-0.9c0-0.2,0.1-0.4,0.1-0.5c-0.1,0-0.3,0-0.4,0c-1.4,0-2.2-1.1-2.2-2.1c0-0.6,0.3-1.3,0.9-1.8
			c0.8-0.6,1.7-0.7,2.4-0.7h2.8l-0.9,0.5H74.1z M73.1,24.6c-0.1,0-0.2,0-0.3,0c-0.1,0-0.8,0-1.4,0.2c-0.3,0.1-1.2,0.4-1.2,1.4
			c0,1,0.9,1.6,2.4,1.6c1.3,0,2-0.6,2-1.5C74.6,25.7,74.1,25.3,73.1,24.6z M73.5,22c0.3-0.3,0.3-0.7,0.3-1c0-1-0.6-2.5-1.7-2.5
			c-0.4,0-0.7,0.2-0.9,0.4c-0.2,0.3-0.3,0.6-0.3,1c0,0.9,0.5,2.4,1.7,2.4C72.9,22.4,73.3,22.2,73.5,22z"/>
		<path class="st5" d="M65.6,24.3c-2.1,0-3.3-1.7-3.3-3.2c0-1.8,1.4-3.3,3.5-3.3c2,0,3.2,1.5,3.2,3.2C69,22.7,67.8,24.3,65.6,24.3z
			 M67.3,23.3c0.3-0.4,0.4-1,0.4-1.5c0-1.2-0.6-3.4-2.2-3.4c-0.4,0-0.9,0.2-1.2,0.5c-0.5,0.5-0.6,1.1-0.6,1.6c0,1.3,0.7,3.5,2.3,3.5
			C66.4,23.9,67,23.7,67.3,23.3z"/>
		<path class="st5" d="M58.3,24.3c-2.1,0-3.3-1.7-3.3-3.2c0-1.8,1.4-3.3,3.5-3.3c2,0,3.2,1.5,3.2,3.2C61.7,22.7,60.5,24.3,58.3,24.3
			z M60,23.3c0.3-0.4,0.4-1,0.4-1.5c0-1.2-0.6-3.4-2.2-3.4c-0.4,0-0.9,0.2-1.2,0.5c-0.5,0.5-0.6,1.1-0.6,1.6c0,1.3,0.7,3.5,2.3,3.5
			C59.2,23.9,59.7,23.7,60,23.3z"/>
		<path class="st5" d="M54,24.1l-1.9,0.4c-0.8,0.1-1.5,0.2-2.2,0.2c-3.7,0-5.1-2.7-5.1-4.9c0-2.6,2-5,5.5-5c0.7,0,1.4,0.1,2.1,0.3
			c1,0.3,1.5,0.6,1.8,0.8l-1.1,1.1l-0.5,0.1l0.3-0.5c-0.5-0.4-1.3-1.3-2.9-1.3c-2.1,0-3.7,1.6-3.7,4c0,2.5,1.8,4.9,4.8,4.9
			c0.9,0,1.3-0.2,1.7-0.3v-2.2l-2,0.1l1.1-0.6h2.9l-0.4,0.3c-0.1,0.1-0.1,0.1-0.1,0.2c0,0.1,0,0.5,0,0.6V24.1z"/>
		<path class="st5" d="M78.3,23.8c-0.4,0-0.5-0.1-0.5-0.6V23v-7.5c0,0,0-0.1,0-0.1c0.1-0.5,0.2-0.6,0.6-0.8h-1.9l-1,0.5h1v0l0,0V23
			v0.4c0,0.3-0.1,0.3-0.4,0.7h2.4l0.5-0.3C78.8,23.8,78.6,23.8,78.3,23.8z"/>
		<path class="st5" d="M83.8,23.9c-0.1,0.1-0.3,0.2-0.4,0.2c-0.4,0.2-0.9,0.3-1.3,0.3c-0.4,0-1.1,0-1.8-0.5c-1-0.7-1.4-1.8-1.4-2.8
			c0-2.1,1.7-3.1,3.1-3.1c0.5,0,1,0.1,1.4,0.4c0.7,0.4,0.8,1,0.9,1.3l-3.1,1.3l-1,0.1c0.3,1.7,1.5,2.7,2.8,2.7
			c0.7,0,1.2-0.2,1.6-0.5L83.8,23.9z M82.6,19.9c0.3-0.1,0.4-0.2,0.4-0.4c0-0.5-0.6-1.2-1.3-1.2c-0.5,0-1.5,0.4-1.5,1.9
			c0,0.2,0,0.5,0,0.7L82.6,19.9z"/>
		<g>
			<path class="st5" d="M85.1,18v0.9H85V18h-0.3v-0.1h0.7V18H85.1z"/>
			<path class="st5" d="M86.3,18.9V18h0L86,18.9H86L85.7,18h0v0.9h-0.1v-1h0.2l0.2,0.8h0l0.2-0.8h0.2L86.3,18.9L86.3,18.9z"/>
		</g>
	</g>
</g>
</svg>
