<?xml version="1.0" encoding="utf-8"?>
<!-- Generator: Adobe Illustrator 19.1.0, SVG Export Plug-In . SVG Version: 6.00 Build 0)  -->
<svg version="1.1" id="Слой_1" xmlns="http://www.w3.org/2000/svg" xmlns:xlink="http://www.w3.org/1999/xlink" x="0px" y="0px"
	 viewBox="0 0 40 40" style="enable-background:new 0 0 40 40;" xml:space="preserve">
<style type="text/css">
	.st0{fill:#BCBEC0;}
</style>
<path class="st0" d="M20,0C9,0,0,9,0,20s9,20,20,20s20-9,20-20S31,0,20,0z M20,39c-5.4,0-10.3-2.3-13.8-6c0.1-0.9,0.7-3.4,1.9-4
	c0.9-0.5,3.3-1,5-1.3c1.7-0.2,3-1.7,3.5-2.4c1,0.7,2.1,1.2,3.2,1.2c0,0,0,0,0,0c1.2,0,2.4-0.5,3.4-1.3c0.5,0.7,1.9,2.3,3.6,2.5
	c1.7,0.2,4.1,0.8,5,1.3c1.2,0.6,1.8,3.2,1.9,4C30.3,36.7,25.4,39,20,39z M12.9,14.8l0.2,0l0-0.5c0,0,0-0.3,0-0.8
	c3.3-0.1,5.2-1.6,6.6-2.7c0.9-0.7,1.7-1.3,2.4-1.3c1,0,1.1,0.5,1.1,0.7l0,0.5l0.5,0c0,0,1.5,0,2.2,0.9c0.4,0.5,0.6,1.2,0.4,2.1
	L26.5,14l0.3,0.2l0,0c0.1,0.1,0.7,0.8,0.5,2.1c-0.2,1.8-1.5,2.5-1.5,2.5l-0.2,0.1l-0.1,0.2c0,0-0.6,2.1-1.3,3.4
	c-1,1.7-2.7,2.9-4.4,2.9c-1.6,0-3.4-1.2-4.4-2.9c-0.8-1.3-1.3-3.2-1.3-3.3l-0.1-0.2L13.9,19c-0.1,0-1.4-0.8-1.5-2.6
	C12.3,15.4,12.6,14.9,12.9,14.8z M12.9,12c0-1.2,0.5-3.1,2.1-4.6c1.4-1.4,3.2-2.1,5.4-2.1c0,0,0,0,0,0c3.3,0,5.7,2.3,6.6,4.6
	c0.3,0.7,0.4,1.3,0.4,1.9c-0.1-0.3-0.3-0.6-0.5-0.9c-0.8-0.9-2-1.2-2.6-1.2c-0.2-0.6-0.7-1.2-2-1.2c-1.1,0-2,0.7-3,1.5
	c-1.4,1.1-3.2,2.5-6.2,2.5c0,0-0.1,0-0.1,0C12.9,12.4,12.9,12.2,12.9,12z M32.4,28.1c-1-0.6-3.5-1.1-5.3-1.4c-1.4-0.2-2.6-1.7-3-2.2
	c0.4-0.4,0.8-0.9,1.1-1.4c0.7-1.2,1.2-2.9,1.4-3.5c0.5-0.3,1.7-1.2,1.9-3.2c0.1-1.1-0.2-2-0.6-2.6c0.8-1,0.9-2.6,0.2-4.3
	c-1-2.6-3.7-5.2-7.5-5.2c0,0,0,0,0,0c-2.5,0-4.6,0.8-6.1,2.4c-1.7,1.7-2.4,4-2.4,5.3c0,1.1,0.1,1.8,0.2,2.2c-0.4,0.3-0.8,1-0.7,2.3
	c0.2,2,1.4,3,1.9,3.3c0.2,0.5,0.7,2.1,1.4,3.3c0.3,0.6,0.8,1.1,1.2,1.5c-0.5,0.6-1.6,1.9-2.9,2.1c-1.9,0.3-4.3,0.8-5.3,1.4
	c-1.4,0.8-2,3-2.2,4.1C2.7,28.9,1,24.6,1,20C1,9.5,9.5,1,20,1s19,8.5,19,19c0,4.6-1.7,8.9-4.5,12.2C34.4,31.2,33.8,28.9,32.4,28.1z"
	/>
<g id="XMLID_25_">
</g>
<g id="XMLID_30_">
</g>
<g id="XMLID_276_">
</g>
<g id="XMLID_346_">
</g>
<g id="XMLID_350_">
</g>
<g>
</g>
<g>
</g>
</svg>
