<?xml version="1.0" encoding="utf-8"?>
<!-- Generator: Adobe Illustrator 19.1.0, SVG Export Plug-In . SVG Version: 6.00 Build 0)  -->
<svg version="1.1" id="Слой_1" xmlns="http://www.w3.org/2000/svg" xmlns:xlink="http://www.w3.org/1999/xlink" x="0px" y="0px"
	 viewBox="0 0 21 21" style="enable-background:new 0 0 21 21;" xml:space="preserve">
<style type="text/css">
	.st0{fill:#E0A727;}
</style>
<g>
	<g>
		<path class="st0" d="M18.4,21H2.6c-1.3,0-2.1-0.8-2.1-2.1v-8.2l-0.4-0.4C0.1,10.2,0,10.1,0,10V4.7c0-0.3,0.2-0.5,0.5-0.5h20
			c0.3,0,0.5,0.2,0.5,0.5V10c0,0.1-0.1,0.3-0.1,0.4l-0.4,0.4v8.2C20.5,20.2,19.7,21,18.4,21z M1,9.8l0.4,0.4
			c0.1,0.1,0.1,0.2,0.1,0.4v8.4c0,0.8,0.3,1.1,1.1,1.1h15.8c0.8,0,1.1-0.3,1.1-1.1v-8.4c0-0.1,0.1-0.3,0.1-0.4L20,9.8V5.2H1V9.8z"/>
	</g>
	<g>
		<path class="st0" d="M15.2,5.2c-0.3,0-0.5-0.2-0.5-0.5V2.3C14.3,1.9,13,1,10.5,1C8,1,6.7,1.9,6.3,2.3v2.4C6.3,5,6,5.2,5.8,5.2
			S5.3,5,5.3,4.7V2.1c0-0.1,0-0.2,0.1-0.3C5.5,1.7,7,0,10.5,0c3.5,0,5,1.7,5.1,1.7c0.1,0.1,0.1,0.2,0.1,0.3v2.6
			C15.7,5,15.5,5.2,15.2,5.2z"/>
	</g>
	<g>
		<path class="st0" d="M10.5,12.1c-6.3,0-9.5-1-9.6-1.1c-0.3-0.1-0.4-0.4-0.3-0.6c0.1-0.3,0.4-0.4,0.6-0.3c0,0,3.2,1,9.3,1
			c6.1,0,9.3-1,9.3-1c0.3-0.1,0.5,0.1,0.6,0.3c0.1,0.3-0.1,0.5-0.3,0.6C20,11,16.8,12.1,10.5,12.1z"/>
	</g>
	<g>
		<path class="st0" d="M5.2,14.7c-0.7,0-1.3-0.6-1.4-0.7c-0.1-0.1-0.1-0.2-0.1-0.4v-2.1c0-0.3,0.2-0.5,0.5-0.5s0.5,0.2,0.5,0.5v1.9
			c0.2,0.1,0.4,0.3,0.6,0.3c0.2,0,0.4-0.1,0.6-0.3v-1.9c0-0.3,0.2-0.5,0.5-0.5s0.5,0.2,0.5,0.5v2.1c0,0.1-0.1,0.3-0.1,0.4
			C6.6,14.1,5.9,14.7,5.2,14.7z"/>
	</g>
	<g>
		<path class="st0" d="M15.8,14.7c-0.7,0-1.3-0.6-1.4-0.7c-0.1-0.1-0.1-0.2-0.1-0.4v-2.1c0-0.3,0.2-0.5,0.5-0.5s0.5,0.2,0.5,0.5v1.9
			c0.2,0.1,0.4,0.3,0.6,0.3c0.2,0,0.4-0.1,0.6-0.3v-1.9c0-0.3,0.2-0.5,0.5-0.5s0.5,0.2,0.5,0.5v2.1c0,0.1-0.1,0.3-0.1,0.4
			C17.1,14.1,16.5,14.7,15.8,14.7z"/>
	</g>
	<g>
		<path class="st0" d="M15.2,3.1C15.2,3.1,15.2,3.1,15.2,3.1c-0.1,0-2.7-0.5-4.7-0.5c-2,0-4.6,0.5-4.6,0.5C5.6,3.1,5.3,3,5.3,2.7
			C5.2,2.4,5.4,2.2,5.7,2.1c0.1,0,2.7-0.5,4.8-0.5c2.1,0,4.7,0.5,4.8,0.5c0.3,0.1,0.4,0.3,0.4,0.6C15.7,2.9,15.5,3.1,15.2,3.1z"/>
	</g>
</g>
</svg>
