<?xml version="1.0" encoding="utf-8"?>
<!-- Generator: Adobe Illustrator 19.1.0, SVG Export Plug-In . SVG Version: 6.00 Build 0)  -->
<svg version="1.1" id="Слой_1" xmlns="http://www.w3.org/2000/svg" xmlns:xlink="http://www.w3.org/1999/xlink" x="0px" y="0px"
	 viewBox="0 0 21.9 16.8" style="enable-background:new 0 0 21.9 16.8;" xml:space="preserve">
<style type="text/css">
	.st0{fill:#E0A727;}
</style>
<g>
	<path class="st0" d="M18.5,7.2c-0.3-0.1-0.5,0.1-0.6,0.3C17.8,7.8,18,8,18.2,8.1c1.9,0.6,2.7,1.5,2.7,2.8c0,1.2-1.1,2.2-1.8,2.7
		c-0.1,0.1-0.2,0.2-0.2,0.4v1.6c-0.3-0.2-0.8-0.4-1.2-0.9c-0.1-0.1-0.3-0.2-0.5-0.2c-0.2,0-0.3,0.1-0.5,0.1
		c-0.3,0.1-0.5,0.1-0.7,0.1c-1.3,0-2.1-0.3-3-0.9c-0.2-0.2-0.5-0.1-0.7,0.1c-0.2,0.2-0.1,0.5,0.1,0.7c1.1,0.8,2.1,1.1,3.6,1.1
		c0.4,0,0.7-0.1,1-0.2c0,0,0.1,0,0.1,0c1,1,2.1,1.2,2.1,1.2c0,0,0.1,0,0.1,0c0.1,0,0.2,0,0.3-0.1c0.1-0.1,0.2-0.2,0.2-0.4v-2
		c1.3-1,2-2.1,2-3.3C21.9,8.5,20,7.6,18.5,7.2z"/>
	<path class="st0" d="M17.3,7.1c0-4.1-3.7-7.1-8.6-7.1C3.8,0,0,3.1,0,7.1c0,1.9,1.1,3.7,3.1,5.1v3.3c0,0.2,0.1,0.3,0.2,0.4
		C3.4,16,3.5,16,3.6,16c0.1,0,0.1,0,0.2,0c0.1,0,1.8-0.8,3.3-2.4c0.6,0.1,1.3,0.2,2,0.2C14,13.8,17.3,11.1,17.3,7.1z M9,12.8
		c-0.7,0-1.4-0.1-2-0.2c-0.2,0-0.4,0-0.5,0.2c-0.8,1-1.8,1.6-2.4,2V12c0-0.2-0.1-0.3-0.2-0.4C2.5,10.7,1,9.2,1,7.1
		C1,3.7,4.4,1,8.8,1c4.3,0,7.6,2.6,7.6,6.1C16.3,10.5,13.4,12.8,9,12.8z"/>
	<path class="st0" d="M8.7,5.9C8,5.9,7.4,6.4,7.4,7.1S8,8.4,8.7,8.4s1.3-0.6,1.3-1.3S9.4,5.9,8.7,5.9z M8.4,7.1
		c0-0.1,0.1-0.3,0.3-0.3c0.1,0,0.3,0.1,0.3,0.3C8.9,7.4,8.4,7.4,8.4,7.1z"/>
	<path class="st0" d="M12.2,5.9c-0.7,0-1.3,0.6-1.3,1.3s0.6,1.3,1.3,1.3s1.3-0.6,1.3-1.3S12.9,5.9,12.2,5.9z M12,7.1
		c0-0.1,0.1-0.3,0.3-0.3c0.1,0,0.3,0.1,0.3,0.3C12.5,7.4,12,7.4,12,7.1z"/>
	<path class="st0" d="M5.1,5.9c-0.7,0-1.3,0.6-1.3,1.3s0.6,1.3,1.3,1.3s1.3-0.6,1.3-1.3S5.8,5.9,5.1,5.9z M4.8,7.2
		C4.8,7,5,6.9,5.1,6.9c0.1,0,0.3,0.1,0.3,0.3C5.4,7.5,4.8,7.5,4.8,7.2z"/>
</g>
</svg>
