<?xml version="1.0" encoding="utf-8"?>
<!-- Generator: Adobe Illustrator 19.1.0, SVG Export Plug-In . SVG Version: 6.00 Build 0)  -->
<svg version="1.1" id="Слой_1" xmlns="http://www.w3.org/2000/svg" xmlns:xlink="http://www.w3.org/1999/xlink" x="0px" y="0px"
	 viewBox="0 0 21.3 21.3" style="enable-background:new 0 0 21.3 21.3;" xml:space="preserve">
<style type="text/css">
	.st0{fill:#E0A727;}
</style>
<g>
	<path class="st0" d="M4.9,7.9H1.3C1.1,7.9,1,7.8,1,7.5V7.2h10.1c0.3,0,0.5-0.2,0.5-0.5V1.4C11.6,0.6,11,0,10.3,0H1.3
		C0.6,0,0,0.6,0,1.4v6.2c0,0.8,0.6,1.4,1.3,1.4h3.6c0.3,0,0.5-0.2,0.5-0.5S5.2,7.9,4.9,7.9z M1.3,1h8.9c0.2,0,0.3,0.2,0.3,0.4v4.8H1
		V1.4C1,1.2,1.1,1,1.3,1z"/>
	<path class="st0" d="M4.9,9.7H2.3c-0.3,0-0.5,0.2-0.5,0.5s0.2,0.5,0.5,0.5h2.6c0.3,0,0.5-0.2,0.5-0.5S5.2,9.7,4.9,9.7z"/>
	<path class="st0" d="M19.3,7.9H8.1C7,7.9,6.2,8.9,6.2,10v7.4c0,1.1,0.9,2.1,1.9,2.1h5.1v0.8h-3c-0.3,0-0.5,0.2-0.5,0.5
		s0.2,0.5,0.5,0.5h7c0.3,0,0.5-0.2,0.5-0.5s-0.2-0.5-0.5-0.5h-3v-0.8h5.1c1.1,0,1.9-0.9,1.9-2.1V10C21.3,8.9,20.4,7.9,19.3,7.9z
		 M8.1,8.9h11.3c0.5,0,0.9,0.5,0.9,1.1v5.8H7.2V10C7.2,9.4,7.6,8.9,8.1,8.9z M7.2,17.4v-0.6h6.1c-0.3,0.2-0.5,0.5-0.5,0.8
		c0,0.4,0.2,0.7,0.5,0.8H8.1C7.6,18.5,7.2,18,7.2,17.4z M19.3,18.5h-5.2c0.3-0.2,0.5-0.5,0.5-0.8c0-0.4-0.2-0.7-0.5-0.8h6.1v0.6
		C20.3,18,19.8,18.5,19.3,18.5z"/>
</g>
</svg>
