<?xml version="1.0" encoding="utf-8"?>
<!-- Generator: Adobe Illustrator 19.1.0, SVG Export Plug-In . SVG Version: 6.00 Build 0)  -->
<svg version="1.1" id="Слой_1" xmlns="http://www.w3.org/2000/svg" xmlns:xlink="http://www.w3.org/1999/xlink" x="0px" y="0px"
	 viewBox="0 0 20.7 19" style="enable-background:new 0 0 20.7 19;" xml:space="preserve">
<style type="text/css">
	.st0{fill:#E0A727;}
</style>
<g>
	<path class="st0" d="M18.9,0H1.8C0.8,0,0,0.8,0,1.8v12.9c0,1,0.8,1.8,1.8,1.8h5.7L7,18H4.4c-0.3,0-0.5,0.2-0.5,0.5S4.1,19,4.4,19h3
		h6h3c0.3,0,0.5-0.2,0.5-0.5S16.6,18,16.4,18h-2.6l-0.5-1.6h5.7c1,0,1.8-0.8,1.8-1.8V1.8C20.7,0.8,19.9,0,18.9,0z M12.7,18H8
		l0.5-1.6h3.6L12.7,18z M19.7,14.6c0,0.4-0.4,0.8-0.8,0.8h-6.4H8.2H1.8c-0.4,0-0.8-0.4-0.8-0.8V1.8C1,1.4,1.4,1,1.8,1h17.1
		c0.4,0,0.8,0.4,0.8,0.8V14.6z"/>
	<path class="st0" d="M18.5,1.7H2.2c-0.3,0-0.5,0.2-0.5,0.5v10.3c0,0.3,0.2,0.5,0.5,0.5h16.3c0.3,0,0.5-0.2,0.5-0.5V2.2
		C19,1.9,18.8,1.7,18.5,1.7z M18,12H2.7V2.7H18V12z"/>
	<circle class="st0" cx="10.4" cy="14.2" r="0.9"/>
</g>
</svg>
