<?xml version="1.0" encoding="utf-8"?>
<!-- Generator: Adobe Illustrator 19.1.0, SVG Export Plug-In . SVG Version: 6.00 Build 0)  -->
<svg version="1.1" id="Слой_1" xmlns="http://www.w3.org/2000/svg" xmlns:xlink="http://www.w3.org/1999/xlink" x="0px" y="0px"
	 viewBox="0 0 22 22" style="enable-background:new 0 0 22 22;" xml:space="preserve">
<style type="text/css">
	.st0{fill:#E0A727;}
</style>
<g>
	<path class="st0" d="M22,10.3c0-0.5-0.5-1-0.9-1.1l-2.2-0.5c-0.1,0-0.3-0.2-0.4-0.3l-0.3-0.7c-0.1-0.1,0-0.4,0-0.5l1.2-1.9
		c0.3-0.4,0.2-1.1-0.2-1.5l-1-1c-0.4-0.3-1-0.4-1.5-0.1l-1.9,1.2c-0.1,0.1-0.3,0.1-0.5,0l-0.7-0.3c-0.1,0-0.3-0.2-0.3-0.3L12.8,1
		c-0.1-0.5-0.6-0.9-1.1-1c0,0-0.3,0-0.7,0c-0.4,0-0.7,0-0.7,0c-0.5,0-1,0.5-1.1,1L8.6,3.2c0,0.1-0.2,0.3-0.3,0.4L7.6,3.8
		c-0.1,0.1-0.4,0-0.5,0L5.2,2.6C4.8,2.3,4.1,2.4,3.7,2.8l-1,1c-0.3,0.4-0.4,1-0.1,1.5l1.2,1.9c0.1,0.1,0.1,0.3,0,0.5L3.5,8.3
		c0,0.1-0.2,0.3-0.3,0.3L1,9.2C0.5,9.3,0.1,9.8,0,10.3c0,0,0,0.3,0,0.7s0,0.7,0,0.7c0,0.5,0.5,1,1,1.1l2.2,0.5
		c0.1,0,0.3,0.2,0.4,0.3l0.3,0.7c0.1,0.1,0,0.4,0,0.5l-1.2,1.9c-0.3,0.4-0.2,1.1,0.2,1.5l1,1c0.4,0.3,1,0.4,1.4,0.1l1.9-1.2
		c0.1-0.1,0.3-0.1,0.5,0l0.7,0.3c0.1,0,0.3,0.2,0.3,0.3L9.2,21c0.1,0.5,0.6,0.9,1.1,0.9c0,0,0.3,0,0.7,0c0.4,0,0.7,0,0.7,0
		c0.5,0,1-0.5,1.1-1l0.5-2.2c0-0.1,0.2-0.3,0.3-0.3l0.7-0.3c0.1-0.1,0.3,0,0.5,0l1.9,1.2c0.4,0.3,1.1,0.2,1.5-0.2l1-1
		c0.3-0.4,0.4-1,0.1-1.5l-1.2-1.9c-0.1-0.1-0.1-0.3,0-0.5l0.3-0.7c0-0.1,0.2-0.3,0.3-0.3l2.2-0.5c0.5-0.1,0.9-0.6,0.9-1.1
		c0,0,0-0.3,0-0.7C22,10.6,22,10.3,22,10.3z M21,11.6c0,0.1-0.1,0.2-0.2,0.2c0,0,0,0,0,0l-2.2,0.5c-0.4,0.1-0.9,0.5-1,0.9L17.3,14
		c-0.2,0.4-0.2,1,0.1,1.4l1.2,1.9c0,0.1,0,0.2,0,0.2l-1,1c-0.1,0-0.2,0.1-0.3,0l-1.9-1.2c-0.4-0.2-1-0.3-1.4-0.1l-0.7,0.3
		c-0.4,0.2-0.8,0.6-1,1.1l-0.5,2.2c0,0.1-0.1,0.2-0.2,0.2c0,0-0.3,0-0.6,0s-0.6,0-0.6,0c-0.1,0-0.2-0.1-0.2-0.2l-0.5-2.2
		c-0.1-0.4-0.5-0.9-0.9-1L8,17.3c-0.2-0.1-0.4-0.1-0.6-0.1c-0.3,0-0.6,0.1-0.8,0.2l-1.9,1.2c-0.1,0-0.2,0-0.2,0l-1-1
		c-0.1-0.1-0.1-0.2,0-0.3l1.2-1.9c0.2-0.4,0.3-1,0.1-1.4l-0.3-0.7c-0.2-0.4-0.6-0.8-1.1-1l-2.2-0.5c-0.1,0-0.2-0.1-0.2-0.2
		c0,0,0-0.3,0-0.6s0-0.6,0-0.6c0-0.1,0.1-0.2,0.2-0.2l2.2-0.5c0.5-0.1,0.9-0.5,1-0.9L4.7,8c0.2-0.4,0.2-1-0.1-1.4L3.5,4.7
		c0-0.1,0-0.2,0-0.2l1-1c0.1,0,0.2-0.1,0.3,0l1.9,1.2C7,4.9,7.6,4.9,8,4.7l0.7-0.3c0.4-0.2,0.8-0.6,1-1.1l0.5-2.2
		c0-0.1,0.1-0.2,0.2-0.2c0,0,0.3,0,0.6,0s0.6,0,0.6,0c0.1,0,0.2,0.1,0.2,0.2l0.5,2.2c0.1,0.4,0.5,0.9,0.9,1L14,4.7
		c0.4,0.2,1,0.2,1.4-0.1l1.9-1.2c0.1,0,0.2,0,0.2,0l1,1c0,0.1,0.1,0.2,0,0.3l-1.2,1.9c-0.2,0.4-0.3,1-0.1,1.4l0.3,0.7
		c0.2,0.4,0.6,0.8,1.1,1l2.2,0.5c0.1,0,0.2,0.1,0.2,0.2c0,0,0,0.3,0,0.6S21,11.6,21,11.6z"/>
	<path class="st0" d="M11,6.3c-2.6,0-4.7,2.1-4.7,4.7c0,2.6,2.1,4.7,4.7,4.7s4.7-2.1,4.7-4.7C15.7,8.4,13.6,6.3,11,6.3z M11,14.7
		c-2,0-3.7-1.7-3.7-3.7C7.3,9,9,7.3,11,7.3c2,0,3.7,1.7,3.7,3.7C14.7,13,13,14.7,11,14.7z"/>
</g>
</svg>
