<?xml version="1.0" encoding="utf-8"?>
<!-- Generator: Adobe Illustrator 19.1.0, SVG Export Plug-In . SVG Version: 6.00 Build 0)  -->
<svg version="1.1" id="Слой_1" xmlns="http://www.w3.org/2000/svg" xmlns:xlink="http://www.w3.org/1999/xlink" x="0px" y="0px"
	 viewBox="0 0 20 20" style="enable-background:new 0 0 20 20;" xml:space="preserve">
<style type="text/css">
	.st0{fill:#E0A727;}
</style>
<g>
	<path class="st0" d="M14.7,11c-0.3-0.1-0.5,0.1-0.6,0.3c-0.6,1.7-2.2,2.9-4,2.9c-1.4,0-2.8-0.7-3.5-1.9l0.4,0.1
		c0.3,0.1,0.5-0.1,0.6-0.3c0.1-0.3-0.1-0.5-0.3-0.6L5.6,11c0,0,0,0-0.1,0c0,0-0.1,0-0.1,0c0,0-0.1,0-0.1,0c0,0,0,0-0.1,0
		c0,0,0,0,0,0c0,0,0,0,0,0c0,0,0,0,0,0c0,0-0.1,0-0.1,0.1c0,0,0,0-0.1,0.1c0,0,0,0.1,0,0.1c0,0,0,0,0,0l-0.5,1.5
		c-0.1,0.3,0.1,0.5,0.3,0.6c0.1,0,0.1,0,0.2,0c0.2,0,0.4-0.1,0.5-0.3l0.1-0.3c0.9,1.5,2.6,2.4,4.4,2.4c2.3,0,4.3-1.4,5-3.6
		C15.1,11.4,14.9,11.1,14.7,11z"/>
	<path class="st0" d="M10,0C4.5,0,0,4.5,0,10s4.5,10,10,10s10-4.5,10-10S15.5,0,10,0z M10,19c-5,0-9-4-9-9s4-9,9-9s9,4,9,9
		S15,19,10,19z"/>
	<path class="st0" d="M15.2,6.5c-0.3-0.1-0.5,0.1-0.6,0.3l-0.1,0.3c-0.9-1.5-2.6-2.4-4.4-2.4c-2.3,0-4.3,1.4-5,3.6
		C4.9,8.6,5.1,8.9,5.3,9C5.6,9.1,5.9,8.9,6,8.7c0.6-1.7,2.2-2.9,4-2.9c1.4,0,2.8,0.7,3.5,1.9l-0.4-0.1c-0.3-0.1-0.5,0.1-0.6,0.3
		c-0.1,0.3,0.1,0.5,0.3,0.6L14.4,9c0,0,0,0,0,0c0,0,0.1,0,0.2,0c0.1,0,0.1,0,0.2,0c0,0,0,0,0,0c0,0,0,0,0,0c0,0,0,0,0,0
		c0,0,0.1,0,0.1-0.1c0,0,0,0,0.1-0.1c0,0,0-0.1,0-0.1c0,0,0,0,0,0l0.5-1.5C15.6,6.9,15.4,6.6,15.2,6.5z"/>
</g>
</svg>
