<?xml version="1.0" encoding="utf-8"?>
<!-- Generator: Adobe Illustrator 19.1.0, SVG Export Plug-In . SVG Version: 6.00 Build 0)  -->
<svg version="1.1" id="Слой_1" xmlns="http://www.w3.org/2000/svg" xmlns:xlink="http://www.w3.org/1999/xlink" x="0px" y="0px"
	 viewBox="0 0 15 20" style="enable-background:new 0 0 15 20;" xml:space="preserve">
<style type="text/css">
	.st0{fill:#E0A727;}
</style>
<g>
	<g>
		<path class="st0" d="M12.9,20H2.2C1,20,0,19,0,17.8V2.2C0,1,1,0,2.2,0h10.7C14.1,0,15,1,15,2.2v15.7C15,19,14.1,20,12.9,20z
			 M2.2,1C1.5,1,1,1.5,1,2.2v15.7C1,18.5,1.5,19,2.2,19h10.7c0.6,0,1.2-0.5,1.2-1.2V2.2C14,1.5,13.5,1,12.9,1H2.2z"/>
	</g>
	<g>
		<path class="st0" d="M7.5,17c-0.5,0-0.8,0.4-0.8,0.8c0,0.5,0.4,0.8,0.8,0.8c0.5,0,0.8-0.4,0.8-0.8C8.3,17.4,8,17,7.5,17L7.5,17z"
			/>
	</g>
	<g>
		<path class="st0" d="M12.9,16.7H2.2c-0.3,0-0.5-0.2-0.5-0.5V3c0-0.3,0.2-0.5,0.5-0.5h10.7c0.3,0,0.5,0.2,0.5,0.5v13.2
			C13.4,16.5,13.2,16.7,12.9,16.7z M2.7,15.7h9.7V3.5H2.7V15.7z"/>
	</g>
	<g>
		<path class="st0" d="M7.5,1.3c-0.2,0-0.4,0.2-0.4,0.4c0,0.2,0.2,0.4,0.4,0.4S7.9,2,7.9,1.7C7.9,1.5,7.8,1.3,7.5,1.3L7.5,1.3z"/>
	</g>
</g>
</svg>
