<?xml version="1.0" encoding="utf-8"?>
<!-- Generator: Adobe Illustrator 19.1.0, SVG Export Plug-In . SVG Version: 6.00 Build 0)  -->
<svg version="1.1" id="Слой_1" xmlns="http://www.w3.org/2000/svg" xmlns:xlink="http://www.w3.org/1999/xlink" x="0px" y="0px"
	 viewBox="0 0 21.4 21.4" style="enable-background:new 0 0 21.4 21.4;" xml:space="preserve">
<style type="text/css">
	.st0{fill:#E0A727;}
</style>
<g>
	<path class="st0" d="M19.3,7.7h-5c-0.3,0-0.5,0.2-0.5,0.5v8.1c0,0.3,0.2,0.5,0.5,0.5h5c0.3,0,0.5-0.2,0.5-0.5V8.2
		C19.8,8,19.5,7.7,19.3,7.7z M18.8,15.9h-4V8.7h4V15.9z"/>
	<path class="st0" d="M10.4,20.4H1.2c-0.1,0-0.2-0.1-0.2-0.2v-19C1,1.1,1.1,1,1.2,1h13.8c0.1,0,0.2,0.1,0.2,0.2v3.3
		c0,0.3,0.2,0.5,0.5,0.5s0.5-0.2,0.5-0.5V1.2c0-0.6-0.5-1.2-1.2-1.2H1.2C0.5,0,0,0.5,0,1.2v19c0,0.6,0.5,1.2,1.2,1.2h9.2
		c0.3,0,0.5-0.2,0.5-0.5S10.6,20.4,10.4,20.4z"/>
	<path class="st0" d="M13.7,5c0.3,0,0.5-0.2,0.5-0.5V3.4c0-0.5-0.4-0.9-1-0.9H3.1c-0.5,0-1,0.4-1,0.9v11.9c0,0.5,0.4,0.9,1,0.9h7.3
		c0.3,0,0.5-0.2,0.5-0.5s-0.2-0.5-0.5-0.5l-7.2,0.1V3.5l10.1,0v1C13.2,4.8,13.4,5,13.7,5z"/>
	<path class="st0" d="M20.2,5.9H13c-0.6,0-1.2,0.5-1.2,1.2v13.1c0,0.6,0.5,1.2,1.2,1.2h7.2c0.6,0,1.2-0.5,1.2-1.2V7.1
		C21.4,6.4,20.8,5.9,20.2,5.9z M20.4,20.2c0,0.1-0.1,0.2-0.2,0.2H13c-0.1,0-0.2-0.1-0.2-0.2V7.1c0-0.1,0.1-0.2,0.2-0.2h7.2
		c0.1,0,0.2,0.1,0.2,0.2V20.2z"/>
	<path class="st0" d="M6.9,18.6c0,0.6,0.5,1.2,1.2,1.2s1.2-0.5,1.2-1.2s-0.5-1.2-1.2-1.2S6.9,17.9,6.9,18.6z M8.2,18.6
		c0,0.2-0.3,0.2-0.3,0c0-0.1,0.1-0.2,0.2-0.2S8.2,18.5,8.2,18.6z"/>
	<path class="st0" d="M16.6,17.4c-0.6,0-1.2,0.5-1.2,1.2s0.5,1.2,1.2,1.2s1.2-0.5,1.2-1.2S17.2,17.4,16.6,17.4z M16.4,18.6
		c0-0.1,0.1-0.2,0.2-0.2c0.1,0,0.2,0.1,0.2,0.2C16.7,18.7,16.4,18.7,16.4,18.6z"/>
</g>
</svg>
