<?xml version="1.0" encoding="utf-8"?>
<!-- Generator: Adobe Illustrator 19.1.0, SVG Export Plug-In . SVG Version: 6.00 Build 0)  -->
<svg version="1.1" id="Слой_1" xmlns="http://www.w3.org/2000/svg" xmlns:xlink="http://www.w3.org/1999/xlink" x="0px" y="0px"
	 viewBox="0 0 20.9 21" style="enable-background:new 0 0 20.9 21;" xml:space="preserve">
<style type="text/css">
	.st0{fill:#E0A727;}
</style>
<g>
	<path class="st0" d="M15.4,8.2c1.5,0.5,3.2,0.1,4.3-1.1c1.2-1.2,1.5-3,0.9-4.5c-0.1-0.2-0.2-0.3-0.4-0.3c-0.2,0-0.3,0-0.4,0.1
		l-2.2,2.3c-0.1,0.1-0.2,0.1-0.3,0l-1-1c-0.1-0.1-0.1-0.2,0-0.3l2.3-2.3c0.1-0.1,0.2-0.3,0.1-0.4c0-0.2-0.1-0.3-0.3-0.4
		C16.8-0.3,15,0,13.8,1.2c-1.1,1.1-1.5,2.9-1,4.3l-7.3,7.3c-1.5-0.5-3.2-0.1-4.3,1.1c-1.2,1.2-1.5,3-0.9,4.5
		c0.1,0.2,0.2,0.3,0.4,0.3c0.2,0,0.3,0,0.4-0.1l2.2-2.3c0.1-0.1,0.2-0.1,0.3,0l1,1c0.1,0.1,0.1,0.2,0,0.3l-2.2,2.3
		c-0.1,0.1-0.2,0.3-0.1,0.4s0.1,0.3,0.3,0.4C3.1,20.9,3.7,21,4.3,21c1,0,2.1-0.4,2.8-1.2c1.1-1.1,1.5-2.9,1-4.3L15.4,8.2z M6.4,19.1
		c-0.7,0.8-1.8,1-2.7,0.8l1.7-1.7c0.5-0.5,0.5-1.2,0-1.7l-1-1c-0.4-0.4-1.2-0.4-1.7,0l-1.7,1.7c-0.2-1,0.2-2,0.9-2.7
		c0.9-0.9,2.4-1.2,3.5-0.7c0.2,0.1,0.4,0,0.5-0.1L13.7,6c0.1-0.1,0.2-0.4,0.1-0.5c-0.5-1.2-0.2-2.7,0.7-3.6c0.7-0.8,1.8-1,2.7-0.8
		l-1.7,1.7c-0.5,0.5-0.5,1.2,0,1.7l1,1c0.5,0.5,1.2,0.5,1.7,0l1.7-1.7c0.2,1-0.2,2-0.9,2.7c-0.9,0.9-2.4,1.2-3.5,0.7
		c-0.2-0.1-0.4,0-0.5,0.1L7.2,15c-0.1,0.1-0.2,0.4-0.1,0.5C7.6,16.7,7.3,18.2,6.4,19.1z"/>
	<path class="st0" d="M14,11.4c-0.2-0.2-0.5-0.2-0.7,0s-0.2,0.5,0,0.7l6.4,6.4c0.1,0.1,0.1,0.2,0,0.3l-0.9,1c-0.1,0.1-0.2,0.1-0.3,0
		l-6.5-6.4c-0.2-0.2-0.5-0.2-0.7,0c-0.2,0.2-0.2,0.5,0,0.7l6.5,6.4c0.2,0.2,0.5,0.4,0.8,0.4c0.3,0,0.6-0.1,0.9-0.4l0.9-1
		c0.5-0.5,0.5-1.2,0-1.7L14,11.4z"/>
	<path class="st0" d="M2.1,4.1c0.1,0.1,0.2,0.1,0.4,0.1s0.3-0.1,0.4-0.1l0.3-0.3l4.8,4.8C8,8.7,8.1,8.7,8.2,8.7s0.3,0,0.4-0.1
		c0.2-0.2,0.2-0.5,0-0.7L3.8,3.1l0.3-0.3c0.1-0.1,0.1-0.2,0.1-0.4S4.2,2.2,4.1,2.1L2.1,0.2C2,0,1.6,0,1.4,0.2L0.1,1.5
		C0,1.7,0,2,0.1,2.2L2.1,4.1z M1.8,1.2L3,2.5L2.4,3L1.2,1.8L1.8,1.2z"/>
</g>
</svg>
