<?xml version="1.0" encoding="utf-8"?>
<!-- Generator: Adobe Illustrator 19.1.0, SVG Export Plug-In . SVG Version: 6.00 Build 0)  -->
<svg version="1.1" id="Слой_1" xmlns="http://www.w3.org/2000/svg" xmlns:xlink="http://www.w3.org/1999/xlink" x="0px" y="0px"
	 viewBox="0 0 21.3 21" style="enable-background:new 0 0 21.3 21;" xml:space="preserve">
<style type="text/css">
	.st0{fill:#E0A727;}
</style>
<path class="st0" d="M21.3,18.5c-0.1-0.5-0.4-1-0.8-1.5c-1.2-1.5-3.1-1.9-4.3-2.1l-0.4-0.1c-0.1,0-0.3-0.1-0.4-0.1
	c-1-0.4-1.6-1.1-1.8-1.9c1-0.9,1.8-2.2,2.3-3.7c0.5-0.7,0.8-1.4,0.8-2c0-0.4-0.1-0.8-0.4-1.1c-0.2-3.4-2.6-6-5.6-6c0,0-0.1,0-0.1,0
	C7.8,0,5.4,2.6,5.1,5.9C4.7,6.2,4.5,6.6,4.5,7.1c0,0.7,0.4,1.6,1.1,2.4c0.5,1.3,1.2,2.4,2,3.2c-0.2,0.8-0.9,1.5-1.8,1.9
	c-0.1,0-0.2,0.1-0.3,0.1c-0.1,0-0.3,0.1-0.5,0.1c-1.1,0.3-3,0.7-4.2,2.1c-0.4,0.5-0.7,1-0.9,1.6c-0.1,0.2,0,0.4,0.2,0.6
	c0.1,0.1,3.2,2,10.4,2c6.1,0,9.4-1.5,10.4-1.9c0,0,0,0,0,0C21.3,19,21.4,18.7,21.3,18.5z M16.3,16l-3.6,1.9l-1.4-1.4l3.2-1.1
	L16.3,16z M10.8,1c2.3,0,4.2,2,4.5,4.6c-0.7-0.2-1.9-0.8-2.3-1.7c-0.1-0.2-0.2-0.3-0.4-0.3c-0.2,0-0.4,0.1-0.5,0.3
	C11.7,4.6,9,5.5,7.6,5.5c-0.5,0-1-0.1-1.4-0.3C6.7,2.8,8.5,1,10.8,1z M8.6,12.1C7.7,11.4,7,10.3,6.6,9c0-0.1-0.1-0.1-0.1-0.2
	C5.9,8.3,5.5,7.6,5.5,7.1c0-0.3,0.1-0.4,0.3-0.5C5.9,6.5,6,6.4,6,6.3c0.5,0.2,1,0.3,1.6,0.3c1.2,0,3.7-0.7,4.8-1.7
	c0.9,1.2,2.6,1.7,3.2,1.8c0.1,0.1,0.1,0.2,0.1,0.4c0,0.4-0.2,1-0.7,1.5c0,0-0.1,0.1-0.1,0.2c-0.5,1.4-1.3,2.7-2.2,3.5
	c-0.1,0.1-0.2,0.3-0.2,0.5c0.1,0.6,0.4,1.3,1,1.9l-2.9,1l-3.1-1c0.7-0.6,1-1.4,1.1-2C8.8,12.4,8.7,12.2,8.6,12.1z M7.1,15.4l3.2,1.1
	l-1.4,1.4l-3.4-2L7.1,15.4z M10.7,20c-5.6,0-8.6-1.2-9.6-1.6c0.1-0.3,0.3-0.6,0.5-0.9c0.6-0.7,1.5-1.1,2.3-1.4c0,0,0,0,0,0L8.7,19
	c0.2,0.1,0.4,0.1,0.6-0.1l1.5-1.5l1.5,1.5c0.1,0.1,0.2,0.1,0.4,0.1c0.1,0,0.2,0,0.2-0.1l5-2.7c0.7,0.3,1.5,0.7,2,1.3
	c0.2,0.2,0.3,0.5,0.4,0.7C19,18.9,15.9,20,10.7,20z"/>
</svg>
